<svg width="176" height="70" viewBox="0 0 176 70" fill="none" xmlns="http://www.w3.org/2000/svg">
<path d="M83.7273 70C80.9956 70 79.1026 69.2731 77.931 67.7802C75.8683 65.1465 76.8931 61.0231 77.7972 57.3853C79.119 52.0787 80.7606 45.4747 90.5909 45.4747C94.181 45.4747 96.557 46.2766 97.8494 47.9292C99.3997 49.9078 98.9721 52.5742 98.5152 54.4061L98.3096 55.2373H98.512L94.9382 69.5991H87.1803L87.1901 69.5306C86.0217 69.9185 84.8305 70 83.7241 70H83.7273ZM90.5909 48.6366C83.5935 48.6366 82.337 52.2515 80.8716 58.1481C80.2156 60.7916 79.3148 64.413 80.4277 65.831C80.9499 66.4959 82.0596 66.8349 83.7273 66.8349C85.0655 66.8349 86.1098 66.7045 87.0139 66.1504C86.7985 66.183 86.57 66.1993 86.3252 66.1993C85.0883 66.1993 84.3964 65.6484 84.0374 65.1888C83.0974 63.9893 83.5217 62.2878 83.7241 61.4729L85.8292 53.0109C86.0837 51.9907 86.7593 49.2754 89.713 49.2754C90.9956 49.2754 91.6908 49.8198 92.0465 50.2761C92.5557 50.9281 92.6536 51.7038 92.5883 52.4438H95.6856C95.8651 51.2377 95.7541 50.3935 95.3527 49.8785C94.7163 49.0668 93.0713 48.6398 90.5909 48.6398V48.6366ZM90.852 66.434H92.461L94.4584 58.3958H89.4649L89.305 59.0314H91.2241L90.3853 62.4051C90.2515 62.9397 90.0067 63.9274 89.3736 64.7618H91.0935L90.8455 66.4307L90.852 66.434ZM86.805 62.1965L86.7952 62.2356C86.7104 62.5811 86.6614 62.8289 86.6353 63.0082C86.8246 62.9462 86.9845 62.7604 87.1608 62.1965H86.8017H86.805ZM88.538 55.234H88.711L89.3148 52.8056C89.3409 52.7045 89.3605 52.6165 89.3768 52.5383C89.2332 52.6752 89.0929 53.0044 88.9036 53.7704L88.5413 55.234H88.538Z" fill="white"/>
<path d="M96.4852 56.8149L93.698 68.0149H89.0145L89.2626 66.346H89.1941C87.5981 68.1583 85.679 68.4191 83.7241 68.4191C76.8833 68.4191 77.9571 63.295 79.3311 57.7667C80.7933 51.8929 82.3664 47.0556 90.5877 47.0556C97.2587 47.0556 97.9995 49.9045 96.9747 54.0214H90.6399L90.8487 53.187C91.2273 51.6615 91.025 50.8563 89.7097 50.8563C88.0909 50.8563 87.6699 52.1504 87.3598 53.3891L85.2547 61.8542C84.9382 63.1222 84.7032 64.6184 86.3187 64.6184C87.9343 64.6184 88.4695 63.5525 88.8514 62.027L89.2038 60.6156H87.2815L88.228 56.8149H96.4852Z" fill="#005EB7"/>
<path d="M114.749 69.5958H105.545L105.072 68.9243C104.651 68.3246 104.54 67.5097 104.746 66.2026L103.9 69.5991H93.9003L99.8011 45.8789H111.146C114.103 45.8789 116.103 46.5993 117.262 48.0759C118.27 49.3634 118.512 51.0943 117.98 53.2228C117.383 55.6251 116.247 57.1213 114.958 58.0405C115.157 58.3013 115.32 58.5881 115.447 58.8945C115.996 60.231 115.666 61.8445 115.284 63.383L114.863 65.0813C114.716 65.6647 114.638 66.1276 114.602 66.4373L115.447 66.7925L114.749 69.5926V69.5958ZM107.918 66.434H111.423C111.459 65.8603 111.58 65.153 111.789 64.3218L112.21 62.6235C112.363 62.0107 112.719 60.5863 112.517 60.0908C112.373 59.7355 111.812 59.4747 111.087 59.4291L109.184 59.3052L109.941 56.352L111.019 56.2249C113.097 55.9772 114.334 54.7809 114.912 52.4601C115.196 51.3225 115.147 50.5043 114.772 50.0219C114.276 49.3895 112.99 49.0375 111.149 49.0375H102.278L97.9506 66.4307H101.426L103.44 58.3404H105.924C106.404 58.3404 107.673 58.3404 108.453 59.3346C109.204 60.2896 109.008 61.5283 108.799 62.3758C108.682 62.8452 108.587 63.3243 108.486 63.8328C108.381 64.3511 108.277 64.8889 108.143 65.4268C108.042 65.8342 107.97 66.1635 107.924 66.4307L107.918 66.434ZM106.596 57.708H103.597L105.506 50.0251H107.52C108.456 50.0251 109.795 50.1458 110.607 51.1823C111.182 51.919 111.325 52.8969 111.025 54.0899C110.454 56.3879 108.838 57.708 106.596 57.708ZM107.98 53.2065L107.908 53.4934C107.925 53.4412 107.941 53.3858 107.954 53.3239C107.964 53.2815 107.973 53.2391 107.98 53.2033V53.2065Z" fill="white"/>
<path d="M101.038 47.4598H111.146C115.797 47.4598 117.298 49.4189 116.443 52.8447C115.627 56.1271 113.633 57.5092 111.201 57.796L111.188 57.8547C112.513 57.9427 113.584 58.5164 113.982 59.4943C114.361 60.4168 114.05 61.7988 113.747 63.0082L113.323 64.7064C113.035 65.857 112.928 66.8382 113.026 67.125C113.124 67.4119 113.31 67.614 113.584 67.7281L113.512 68.0149H106.368C106.045 67.5553 106.348 66.0559 106.599 65.0487C106.851 64.0414 107.007 63.0049 107.259 61.9977C107.696 60.2407 107.102 59.9246 105.921 59.9246H104.674L102.66 68.0149H95.9206L101.035 47.4566L101.038 47.4598ZM106.596 56.1239C107.709 56.1239 108.995 55.6936 109.488 53.7052C109.912 52.007 109.034 51.6028 107.517 51.6028H106.74L105.614 56.1239H106.596Z" fill="#005EB7"/>
<path d="M123.218 70C119.374 70 116.968 69.2144 115.646 67.526C113.75 65.1041 114.599 61.6848 115.676 57.356C117.262 50.977 118.633 45.4715 128.528 45.4715C132.331 45.4715 134.723 46.2636 136.058 47.9683C137.983 50.4261 137.096 53.9888 136.068 58.1155C134.416 64.7553 133.111 69.9967 123.215 69.9967L123.218 70ZM117.213 57.7341L118.75 58.1155C117.915 61.4696 117.197 64.3674 118.14 65.5767C118.793 66.4112 120.503 66.8349 123.215 66.8349C130.637 66.8349 131.374 63.8622 132.993 57.3527C133.819 54.0312 134.534 51.1595 133.561 49.9176C132.895 49.0668 131.201 48.6366 128.528 48.6366C121.107 48.6366 120.32 51.8049 118.747 58.1155L117.21 57.7341H117.213ZM124.161 66.1993C123.809 66.1993 122.739 66.1993 122.024 65.2899C121.107 64.1197 121.329 62.5453 122.618 57.356C123.956 51.9744 124.628 49.2754 127.585 49.2754C127.938 49.2754 129.011 49.2754 129.723 50.1849C130.64 51.3551 130.421 52.9262 129.129 58.1187C127.791 63.5004 127.118 66.2026 124.161 66.2026V66.1993ZM126.864 53.8617C126.42 55.2014 125.947 57.1017 125.695 58.1187C125.506 58.875 125.137 60.3614 124.889 61.6098C125.333 60.2701 125.806 58.3697 126.058 57.356C126.247 56.5965 126.616 55.1101 126.867 53.8617H126.864Z" fill="white"/>
<path d="M128.532 47.0556C137.19 47.0556 136.116 51.3746 134.534 57.7374C132.902 64.3022 131.877 68.4191 123.218 68.4191C114.56 68.4191 115.584 64.3022 117.216 57.7374C118.799 51.3746 119.873 47.0556 128.535 47.0556H128.532ZM127.585 50.8563C126.136 50.8563 125.653 51.7201 124.155 57.7374C122.657 63.7546 122.712 64.6184 124.161 64.6184C125.611 64.6184 126.094 63.7546 127.592 57.7374C129.09 51.7201 129.034 50.8563 127.585 50.8563Z" fill="#005EB7"/>
<path d="M141.952 70C138.114 70 135.826 69.2633 134.53 67.6107C132.983 65.6354 133.414 62.8615 133.959 60.6678L137.637 45.8789H157.477L153.61 61.4305C152.154 67.2782 148.45 70 141.952 70ZM140.115 49.0407L137.034 61.4305C136.495 63.5981 136.492 64.9802 137.024 65.6615C137.634 66.4405 139.292 66.8382 141.949 66.8382C146.959 66.8382 149.445 65.0519 150.536 60.6678L153.427 49.0407H149.951L146.596 62.5225C146.276 63.8068 145.682 66.1993 142.892 66.1993C141.9 66.1993 141.149 65.8831 140.663 65.2573C139.886 64.2631 140.131 62.9299 140.425 61.7597L143.59 49.0407H140.115Z" fill="white"/>
<path d="M148.714 47.4598H155.454L152.073 61.0491C150.849 65.9711 147.915 68.4191 141.949 68.4191C135.379 68.4191 134.227 66.1439 135.493 61.0491L138.874 47.4598H145.614L141.962 62.1444C141.524 63.9013 141.616 64.6217 142.895 64.6217C144.175 64.6217 144.625 63.9013 145.062 62.1444L148.714 47.4598Z" fill="#005EB7"/>
<path d="M150.709 69.5958L156.609 45.8757H166.776C170.196 45.8757 172.478 46.6678 173.754 48.2943C174.876 49.7285 175.128 51.7234 174.508 54.23C173.303 59.0738 169.273 61.851 163.457 61.851H162.641L160.712 69.5958H150.709ZM154.759 66.434H158.235L160.164 58.6892H163.457C166.505 58.6892 170.363 57.783 171.436 53.4705C171.812 51.9581 171.753 50.8759 171.263 50.2468C170.647 49.458 169.096 49.0407 166.782 49.0407H159.09L154.762 66.434H154.759ZM163.169 57.708H160.405L162.314 50.0251H164.295C165.591 50.0251 166.547 50.4098 167.141 51.1693C168.039 52.3134 167.68 53.7574 167.562 54.2333C166.701 57.708 164.135 57.708 163.169 57.708Z" fill="white"/>
<path d="M157.846 47.4598H166.776C171.929 47.4598 174.093 49.3309 172.97 53.8519C171.831 58.4284 168.003 60.2733 163.453 60.2733H161.397L159.472 68.0182H152.732L157.846 47.4598ZM163.169 56.1239C164.416 56.1239 165.509 55.9218 166.025 53.8487C166.378 52.4373 166.012 51.6028 164.292 51.6028H163.551L162.425 56.1239H163.169Z" fill="#005EB7"/>
<path d="M11.769 40.468L14.1645 25.3793C14.3832 24.0037 14.1515 23.6061 14.0731 23.518C14.0046 23.4366 13.8545 23.3974 13.6293 23.3974H13.6227L10.9106 40.468H1.20757L7.34009 1.7993H16.906C20.1567 1.7993 22.9798 1.95576 24.6215 3.87241C25.816 5.27078 26.1652 7.41234 25.692 10.421L25.1698 13.7066C24.6737 16.8522 23.5249 18.9644 21.6939 20.0889C22.004 20.3139 22.2781 20.5746 22.5131 20.8712C23.5314 22.1588 23.8186 24.0885 23.391 26.7744L21.2207 40.468H11.769ZM14.8434 15.7048C15.4602 15.5157 15.8094 14.9974 15.953 14.0978L16.4295 11.0729C16.5144 10.535 16.4752 10.1211 16.3153 9.93527C16.2011 9.80163 15.9889 9.74296 15.7899 9.71688L14.8434 15.7015V15.7048Z" fill="#1E1E1C"/>
<path d="M16.906 2.82934C21.9517 2.82934 25.7899 3.18463 24.6704 10.258L24.1482 13.5404C23.5151 17.5432 21.8767 19.7467 18.5053 20.0009L18.4889 20.102C21.9517 20.3595 23.0222 22.5108 22.3695 26.6114L20.3362 39.4347H12.9798L15.1861 25.539C15.4635 23.7984 15.2611 22.3641 13.6325 22.3641C13.2474 22.3641 13.032 22.4098 12.7187 22.5108L10.0327 39.4347H2.41841L8.2213 2.82934H16.906ZM13.6227 16.8228H14.2135C15.284 16.8228 16.6384 16.3665 16.9746 14.2608L17.4511 11.2359C17.7872 9.13015 16.5764 8.67055 15.5026 8.67055H14.9119L13.6227 16.8196M16.906 0.769267H6.45889L0 41.5013H22.1019L22.376 39.7607L24.4093 26.9374C24.8858 23.9548 24.5301 21.7611 23.3225 20.2356C23.3094 20.2193 23.2964 20.203 23.2833 20.1867C23.5118 19.9781 23.7305 19.7499 23.9361 19.5055C25.0653 18.1625 25.7997 16.3176 26.188 13.8664L26.7102 10.5839C27.2357 7.25588 26.8081 4.84377 25.4048 3.20419C23.4792 0.951804 20.4145 0.769267 16.906 0.769267Z" fill="white"/>
<path d="M25.2905 40.468L31.423 1.7993H46.8115L45.3101 11.2424H39.8924L39.1515 15.8971H44.2364L42.7906 25.0305H37.7057L36.756 31.0184H42.6078L41.1097 40.468H25.2905Z" fill="#1E1E1C"/>
<path d="M45.6006 2.82934L44.4289 10.2091H39.0079L37.9407 16.9271H43.0255L41.9061 23.9972H36.8212L35.5451 32.0484H41.3969L40.2285 39.4347H26.4981L32.3042 2.82934H45.6006ZM48.019 0.769267H30.5418L24.0797 41.5013H41.9909L43.8121 29.9884H37.9603L38.5836 26.0638H43.6685L45.4407 14.8671H40.3591L40.7703 12.2757H46.1913L48.019 0.769267Z" fill="white"/>
<path d="M44.6248 40.468L50.7605 1.7993H61.9453C64.4257 1.7993 66.3089 2.52619 67.536 3.96368C68.9427 5.60652 69.3931 8.09034 68.8774 11.3434L68.1561 15.8547C67.1411 22.2859 64.1385 25.5455 59.2332 25.5455H56.694L54.3245 40.4647H44.6215L44.6248 40.468ZM58.1594 17.3313C58.7436 17.3313 59.1711 17.2368 59.3702 15.9916L60.16 11.0207C60.2775 10.2808 60.1437 10.0983 60.1405 10.0983C60.1241 10.0787 59.9936 10.0102 59.6476 10.0102H59.1548L57.9962 17.3313H58.1594Z" fill="#1E1E1C"/>
<path d="M61.9453 2.82934C66.4851 2.82934 68.7599 5.49243 67.8591 11.1804L67.1411 15.6917C66.3089 20.969 64.1189 24.5122 59.2364 24.5122H55.816L53.4466 39.4314H45.8323L51.6418 2.82608H61.9453M56.7886 18.3646H58.1627C59.5302 18.3646 60.1633 17.5953 60.3918 16.1546L61.1816 11.1837C61.41 9.74948 61.0184 8.98021 59.6509 8.98021H58.2769L56.7886 18.3646ZM61.9453 0.769267H49.8761L43.4107 41.5013H55.2057L57.5752 26.5788H59.2332C62.1966 26.5788 64.5759 25.5064 66.3056 23.3877C67.7319 21.6405 68.6718 19.2284 69.1777 16.0144L69.8957 11.5064C70.4603 7.9404 69.9316 5.17625 68.3193 3.2922C66.8866 1.61676 64.7423 0.766007 61.9453 0.766007V0.769267Z" fill="white"/>
<path d="M78.352 41.2307C75.1242 41.2307 72.7253 40.3441 71.2273 38.5937C69.5041 36.5793 68.9949 33.5153 69.677 29.2224L74.0276 1.7993H83.9884L79.3703 30.9304C79.181 32.1299 79.256 32.57 79.3017 32.7101C79.3213 32.7101 79.3442 32.7101 79.3768 32.7101C79.5596 32.7101 79.9904 32.7101 80.3265 30.6044L84.8925 1.7993H94.8533L90.4538 29.5451C89.2038 37.4072 85.2482 41.2307 78.352 41.2307Z" fill="#1E1E1C"/>
<path d="M93.6458 2.82934L89.4323 29.3821C88.4564 35.5395 85.617 40.1974 78.352 40.1974C71.087 40.1974 69.7227 35.5362 70.6986 29.3821L74.912 2.82934H82.7809L78.352 30.7674C78.0093 32.9187 78.3063 33.7402 79.3768 33.7402C80.4473 33.7402 81.0021 32.9187 81.3448 30.7674L85.7737 2.82934H93.6458ZM96.0609 0.769267H73.1464L68.6555 29.0626C67.9277 33.6685 68.5119 37.0063 70.4408 39.2652C72.1444 41.2568 74.8043 42.264 78.3487 42.264C85.7312 42.264 90.1471 38.0396 91.4689 29.708L96.0609 0.769267Z" fill="white"/>
<path d="M92.7907 40.468L98.9264 1.7993H110.927C113.564 1.7993 115.304 2.39255 116.394 3.67031C117.523 4.99371 117.859 6.98533 117.419 9.75926L116.779 13.8109C116.322 16.6794 115.225 18.4754 113.264 19.4012C113.574 19.6391 113.851 19.9097 114.103 20.2128C115.294 21.6698 115.705 23.8147 115.291 26.4158L114.478 31.5464C113.515 37.6321 110.395 40.468 104.654 40.468H92.7907ZM103.809 32.1919C104.132 32.0778 104.485 31.7518 104.631 30.813L105.591 24.7665C105.682 24.1895 105.614 23.8668 105.526 23.7658C105.473 23.7071 105.343 23.6647 105.163 23.6549L103.809 32.1951V32.1919ZM106.384 15.9721C106.828 15.77 107.105 15.2158 107.19 14.665L107.807 10.7665C107.885 10.2678 107.794 9.95157 107.683 9.82119C107.657 9.79185 107.588 9.71036 107.37 9.70384L106.381 15.9688L106.384 15.9721Z" fill="#1E1E1C"/>
<path d="M110.927 2.82934C115.075 2.82934 117.229 4.36461 116.397 9.59628L115.757 13.648C115.088 17.8496 112.987 18.9742 109.749 19.1274L109.648 19.2317C113.084 19.3849 114.968 21.8459 114.266 26.2529L113.453 31.3835C112.53 37.2247 109.605 39.4347 104.648 39.4347H93.995L99.8044 2.82934H110.924M105.163 17.0836H106.012C107.125 17.0836 108 16.1546 108.208 14.8279L108.825 10.9327C109.034 9.60279 108.453 8.67707 107.34 8.67707H106.488L105.16 17.0868M102.592 33.2838H103.359C104.556 33.2838 105.402 32.5667 105.653 30.9728L106.612 24.9262C106.864 23.3355 106.25 22.6184 105.052 22.6184H104.285L102.595 33.2838M110.927 0.769267H98.042L91.5766 41.5013H104.648C110.904 41.5013 114.452 38.2971 115.493 31.7094L116.306 26.5788C116.883 22.9378 115.872 20.7669 114.912 19.5837C116.247 18.5374 117.34 16.813 117.794 13.9739L118.434 9.91898C118.923 6.82887 118.512 4.56671 117.174 3.0021C115.464 1.0007 112.787 0.769267 110.924 0.769267H110.927Z" fill="white"/>
<path d="M116.87 40.468L123.006 1.7993H132.967L128.284 31.3313H133.505L132.053 40.468H116.87Z" fill="#1E1E1C"/>
<path d="M131.756 2.82934L127.073 32.3614H132.295L131.172 39.438H118.081L123.887 2.8326H131.756M134.175 0.769267H122.122L115.66 41.5013H132.934L134.713 30.298H129.491L134.175 0.766007V0.769267Z" fill="white"/>
<path d="M135.261 40.468L141.397 1.7993H151.358L145.222 40.468H135.261Z" fill="#1E1E1C"/>
<path d="M150.147 2.82934L144.341 39.4347H136.472L142.278 2.82934H150.147ZM152.566 0.769267H140.513L134.051 41.5013H146.1L152.562 0.769267H152.566Z" fill="white"/>
<path d="M159.622 41.2307C156.41 41.2307 154.024 40.3474 152.539 38.61C150.216 35.8915 150.568 31.6605 151.035 28.7171L153.486 13.234C154.756 5.25122 159.031 1.03329 165.849 1.03329C168.718 1.03329 170.917 1.90035 172.38 3.6149C174.103 5.62934 174.661 8.62817 174.044 12.5267L173.085 18.5797H163.117L164.387 10.5709C164.446 10.1895 164.553 9.5213 164.501 9.2475C164.475 9.2475 164.439 9.24098 164.39 9.24098C164.335 9.27683 164.011 9.65495 163.838 10.7828L160.503 31.8072C160.405 32.4233 160.425 32.8014 160.464 32.997C160.758 32.9024 160.917 32.4624 161.162 30.9239L162.484 22.6119H172.448L171.299 29.8547C170.186 36.8726 165.715 41.2307 159.625 41.2307H159.622Z" fill="#1E1E1C"/>
<path d="M165.849 2.06333C171.619 2.06333 174.047 5.9064 173.026 12.3637L172.207 17.5464H164.331L165.412 10.7306C165.604 9.49523 165.81 8.21094 164.397 8.21094C163.506 8.21094 163.023 9.33877 162.823 10.6263L159.488 31.6475C159.286 32.922 159.41 34.0531 160.301 34.0531C161.714 34.0531 161.932 32.671 162.187 31.0771L163.368 23.6452H171.244L170.284 29.6983C169.259 36.1555 165.232 40.204 159.628 40.204C151.714 40.204 151.143 34.6692 152.06 28.8801L154.511 13.397C155.431 7.60466 158.231 2.06659 165.852 2.06659M165.849 0C160.692 0 154.184 2.26868 152.468 13.0678L150.017 28.5541C149.517 31.6997 149.152 36.2338 151.756 39.2782C153.45 41.2568 156.097 42.2608 159.625 42.2608C162.921 42.2608 165.862 41.0743 168.127 38.8317C170.297 36.6803 171.75 33.6293 172.321 30.0144L173.659 21.5786H163.173L163.486 19.6098H173.972L175.066 12.6864C175.731 8.47497 175.095 5.19581 173.166 2.94342C172.017 1.60047 169.818 0 165.849 0Z" fill="white"/>
</svg>
