<svg width="14" height="10" viewBox="0 0 14 10" fill="none" xmlns="http://www.w3.org/2000/svg">
<mask id="mask0_135_204" style="mask-type:luminance" maskUnits="userSpaceOnUse" x="0" y="0" width="14" height="10">
<path d="M0.666626 0H14V10H0.666626V0Z" fill="white"/>
</mask>
<g mask="url(#mask0_135_204)">
<path fill-rule="evenodd" clip-rule="evenodd" d="M0.666626 0V10H14V0H0.666626Z" fill="#2E42A5"/>
<mask id="mask1_135_204" style="mask-type:luminance" maskUnits="userSpaceOnUse" x="0" y="0" width="14" height="10">
<path fill-rule="evenodd" clip-rule="evenodd" d="M0.666626 0V10H14V0H0.666626Z" fill="white"/>
</mask>
<g mask="url(#mask1_135_204)">
<mask id="mask2_135_204" style="mask-type:luminance" maskUnits="userSpaceOnUse" x="0" y="0" width="14" height="10">
<path d="M0.666626 0H14V10H0.666626V0Z" fill="white"/>
</mask>
<g mask="url(#mask2_135_204)">
<path d="M-0.817871 9.28576L2.11617 10.5266L14.0667 1.34926L15.6143 -0.494691L12.4768 -0.909424L7.60247 3.04536L3.67912 5.70996L-0.817871 9.28576Z" fill="white"/>
<path d="M-0.41626 10.1551L1.0785 10.8752L15.0585 -0.666016H12.9597L-0.41626 10.1551Z" fill="#F50100"/>
<path d="M15.4847 9.28576L12.5506 10.5266L0.600129 1.34926L-0.94751 -0.494691L2.19002 -0.909424L7.06434 3.04536L10.9877 5.70996L15.4847 9.28576Z" fill="white"/>
<path d="M15.3846 9.90954L13.8898 10.6296L7.93699 5.68825L6.17207 5.13612L-1.09644 -0.488525H1.00238L8.26682 5.00262L10.1964 5.66467L15.3846 9.90954Z" fill="#F50100"/>
<path fill-rule="evenodd" clip-rule="evenodd" d="M8.90738 -0.83313H5.75926V3.33354H-0.155212V6.66687H5.75926V10.8335H8.90738V6.66687H14.8448V3.33354H8.90738V-0.83313Z" fill="#F50100"/>
<mask id="mask3_135_204" style="mask-type:luminance" maskUnits="userSpaceOnUse" x="-1" y="-1" width="16" height="12">
<path fill-rule="evenodd" clip-rule="evenodd" d="M8.90738 -0.83313H5.75926V3.33354H-0.155212V6.66687H5.75926V10.8335H8.90738V6.66687H14.8448V3.33354H8.90738V-0.83313Z" fill="white"/>
</mask>
<g mask="url(#mask3_135_204)">
<path d="M5.7591 -0.833171V-1.6665H4.92576V-0.833171H5.7591ZM8.90722 -0.833171H9.74055V-1.6665H8.90722V-0.833171ZM5.7591 3.3335V4.16683H6.59243V3.3335H5.7591ZM-0.155375 3.3335V2.50016H-0.988708V3.3335H-0.155375ZM-0.155375 6.66683H-0.988708V7.50016H-0.155375V6.66683ZM5.7591 6.66683H6.59243V5.8335H5.7591V6.66683ZM5.7591 10.8335H4.92576V11.6668H5.7591V10.8335ZM8.90722 10.8335V11.6668H9.74055V10.8335H8.90722ZM8.90722 6.66683V5.8335H8.07389V6.66683H8.90722ZM14.8446 6.66683V7.50016H15.678V6.66683H14.8446ZM14.8446 3.3335H15.678V2.50016H14.8446V3.3335ZM8.90722 3.3335H8.07389V4.16683H8.90722V3.3335ZM5.7591 0.000162721H8.90722V-1.6665H5.7591V0.000162721ZM6.59243 3.3335V-0.833171H4.92576V3.3335H6.59243ZM-0.155375 4.16683H5.7591V2.50016H-0.155375V4.16683ZM0.677956 6.66683V3.3335H-0.988708V6.66683H0.677956ZM5.7591 5.8335H-0.155375V7.50016H5.7591V5.8335ZM6.59243 10.8335V6.66683H4.92576V10.8335H6.59243ZM8.90722 10.0002H5.7591V11.6668H8.90722V10.0002ZM8.07389 6.66683V10.8335H9.74055V6.66683H8.07389ZM14.8446 5.8335H8.90722V7.50016H14.8446V5.8335ZM14.0113 3.3335V6.66683H15.678V3.3335H14.0113ZM8.90722 4.16683H14.8446V2.50016H8.90722V4.16683ZM8.07389 -0.833171V3.3335H9.74055V-0.833171H8.07389Z" fill="white"/>
</g>
</g>
</g>
</g>
</svg>
