<svg width="14" height="10" viewBox="0 0 14 10" fill="none" xmlns="http://www.w3.org/2000/svg">
<mask id="mask0_0_531" style="mask-type:luminance" maskUnits="userSpaceOnUse" x="0" y="0" width="14" height="10">
<path d="M0 0H13.3333V10H0V0Z" fill="white"/>
</mask>
<g mask="url(#mask0_0_531)">
<path fill-rule="evenodd" clip-rule="evenodd" d="M0 0V10H13.3333V0H0Z" fill="#FFB400"/>
<mask id="mask1_0_531" style="mask-type:luminance" maskUnits="userSpaceOnUse" x="0" y="0" width="14" height="10">
<path fill-rule="evenodd" clip-rule="evenodd" d="M0 0V10H13.3333V0H0Z" fill="white"/>
</mask>
<g mask="url(#mask1_0_531)">
<path fill-rule="evenodd" clip-rule="evenodd" d="M0 0V2.5H13.3333V0H0Z" fill="#C51918"/>
<path fill-rule="evenodd" clip-rule="evenodd" d="M0 7.5V10H13.3333V7.5H0Z" fill="#C51918"/>
<path d="M2.08673 4.28003H2.5534V6.7067H2.08673V4.28003Z" fill="#F1F9FF"/>
<path fill-rule="evenodd" clip-rule="evenodd" d="M2.73996 3.86011H1.89996V4.09344H2.03996V4.2801H2.59996V4.09344H2.73996V3.86011Z" fill="#C88A02"/>
<path fill-rule="evenodd" clip-rule="evenodd" d="M2.59996 6.84658H2.73996V7.07991H1.89996V6.84658H2.03996V6.65991H2.59996V6.84658Z" fill="#C88A02"/>
<path fill-rule="evenodd" clip-rule="evenodd" d="M2.32001 3.90664C2.42157 3.90664 2.43189 3.8684 2.49181 3.81129C2.53833 3.76694 2.64668 3.71194 2.64668 3.64998C2.64668 3.50822 2.50043 3.39331 2.32001 3.39331C2.1396 3.39331 1.99335 3.50822 1.99335 3.64998C1.99335 3.71901 2.06796 3.76516 2.12438 3.81129C2.18382 3.85989 2.22746 3.90664 2.32001 3.90664Z" fill="#AD1619"/>
<path fill-rule="evenodd" clip-rule="evenodd" d="M1.89996 7.08008H2.73996V7.45341C2.73996 7.45341 2.63496 7.40674 2.52996 7.40674C2.42496 7.40674 2.31996 7.45341 2.31996 7.45341C2.31996 7.45341 2.21496 7.40674 2.10996 7.40674C2.00496 7.40674 1.89996 7.45341 1.89996 7.45341V7.08008Z" fill="#005BBF"/>
<mask id="mask2_0_531" style="mask-type:luminance" maskUnits="userSpaceOnUse" x="1" y="7" width="2" height="1">
<path fill-rule="evenodd" clip-rule="evenodd" d="M1.89996 7.08008H2.73996V7.45341C2.73996 7.45341 2.63496 7.40674 2.52996 7.40674C2.42496 7.40674 2.31996 7.45341 2.31996 7.45341C2.31996 7.45341 2.21496 7.40674 2.10996 7.40674C2.00496 7.40674 1.89996 7.45341 1.89996 7.45341V7.08008Z" fill="white"/>
</mask>
<g mask="url(#mask2_0_531)">
<path d="M1.89242 7.37992L1.87408 7.33521C1.94974 7.30154 2.02567 7.28467 2.10171 7.28467C2.15084 7.28467 2.1765 7.2915 2.22011 7.31092C2.25842 7.32796 2.27828 7.33325 2.32017 7.33325C2.36207 7.33325 2.38193 7.32796 2.42023 7.31092C2.46385 7.2915 2.4895 7.28467 2.53863 7.28467C2.61467 7.28467 2.6906 7.30154 2.76626 7.33521L2.74792 7.37992C2.67794 7.34879 2.60823 7.33325 2.53863 7.33325C2.49673 7.33325 2.47688 7.33859 2.43857 7.35563C2.39496 7.37504 2.3693 7.38188 2.32017 7.38188C2.27104 7.38188 2.24539 7.37504 2.20178 7.35563C2.16347 7.33859 2.14361 7.33325 2.10171 7.33325C2.03211 7.33325 1.9624 7.34879 1.89242 7.37992Z" fill="white"/>
<path d="M1.89242 7.24007L1.87408 7.19536C1.94974 7.16169 2.02567 7.14478 2.10171 7.14478C2.15084 7.14478 2.1765 7.15165 2.22011 7.17103C2.25842 7.18811 2.27828 7.1934 2.32017 7.1934C2.36207 7.1934 2.38193 7.18811 2.42023 7.17103C2.46385 7.15165 2.4895 7.14478 2.53863 7.14478C2.61467 7.14478 2.6906 7.16169 2.76626 7.19536L2.74792 7.24007C2.67794 7.2089 2.60823 7.1934 2.53863 7.1934C2.49673 7.1934 2.47688 7.19869 2.43857 7.21573C2.39496 7.23515 2.3693 7.24203 2.32017 7.24203C2.27104 7.24203 2.24539 7.23515 2.20178 7.21573C2.16347 7.19869 2.14361 7.1934 2.10171 7.1934C2.03211 7.1934 1.9624 7.2089 1.89242 7.24007Z" fill="white"/>
</g>
<path d="M6.65991 4.28003H7.12658V6.7067H6.65991V4.28003Z" fill="#F1F9FF"/>
<path fill-rule="evenodd" clip-rule="evenodd" d="M7.31336 3.86011H6.47336V4.09344H6.61336V4.2801H7.17336V4.09344H7.31336V3.86011Z" fill="#C88A02"/>
<path fill-rule="evenodd" clip-rule="evenodd" d="M7.17336 6.84658H7.31336V7.07991H6.47336V6.84658H6.61336V6.65991H7.17336V6.84658Z" fill="#C88A02"/>
<path fill-rule="evenodd" clip-rule="evenodd" d="M6.8932 3.90664C6.99474 3.90664 7.00507 3.8684 7.06499 3.81129C7.11153 3.76694 7.21986 3.71194 7.21986 3.64998C7.21986 3.50822 7.07361 3.39331 6.8932 3.39331C6.71278 3.39331 6.56653 3.50822 6.56653 3.64998C6.56653 3.71901 6.64115 3.76516 6.69757 3.81129C6.75699 3.85989 6.80065 3.90664 6.8932 3.90664Z" fill="#AD1619"/>
<path fill-rule="evenodd" clip-rule="evenodd" d="M6.47336 7.08008H7.31336V7.45341C7.31336 7.45341 7.20836 7.40674 7.10336 7.40674C6.99836 7.40674 6.89336 7.45341 6.89336 7.45341C6.89336 7.45341 6.78836 7.40674 6.68336 7.40674C6.57836 7.40674 6.47336 7.45341 6.47336 7.45341V7.08008Z" fill="#005BBF"/>
<mask id="mask3_0_531" style="mask-type:luminance" maskUnits="userSpaceOnUse" x="6" y="7" width="2" height="1">
<path fill-rule="evenodd" clip-rule="evenodd" d="M6.47336 7.08008H7.31336V7.45341C7.31336 7.45341 7.20836 7.40674 7.10336 7.40674C6.99836 7.40674 6.89336 7.45341 6.89336 7.45341C6.89336 7.45341 6.78836 7.40674 6.68336 7.40674C6.57836 7.40674 6.47336 7.45341 6.47336 7.45341V7.08008Z" fill="white"/>
</mask>
<g mask="url(#mask3_0_531)">
<path d="M6.46581 7.37992L6.44748 7.33521C6.5231 7.30154 6.59906 7.28467 6.6751 7.28467C6.72423 7.28467 6.74985 7.2915 6.79348 7.31092C6.83181 7.32796 6.85165 7.33325 6.89356 7.33325C6.93544 7.33325 6.95531 7.32796 6.9936 7.31092C7.03723 7.2915 7.0629 7.28467 7.11202 7.28467C7.18806 7.28467 7.26398 7.30154 7.33965 7.33521L7.32131 7.37992C7.25131 7.34879 7.1816 7.33325 7.11202 7.33325C7.0701 7.33325 7.05027 7.33859 7.01194 7.35563C6.96831 7.37504 6.94269 7.38188 6.89356 7.38188C6.84444 7.38188 6.81877 7.37504 6.77515 7.35563C6.73685 7.33859 6.71698 7.33325 6.6751 7.33325C6.60548 7.33325 6.53577 7.34879 6.46581 7.37992Z" fill="white"/>
<path d="M6.46606 7.24007L6.44772 7.19536C6.52335 7.16169 6.59931 7.14478 6.67535 7.14478C6.72447 7.14478 6.7501 7.15165 6.79372 7.17103C6.83206 7.18811 6.85189 7.1934 6.89381 7.1934C6.93568 7.1934 6.95556 7.18811 6.99385 7.17103C7.03747 7.15165 7.06314 7.14478 7.11227 7.14478C7.18831 7.14478 7.26422 7.16169 7.33989 7.19536L7.32156 7.24007C7.25156 7.2089 7.18185 7.1934 7.11227 7.1934C7.07035 7.1934 7.05052 7.19869 7.01218 7.21573C6.96856 7.23515 6.94293 7.24203 6.89381 7.24203C6.84468 7.24203 6.81902 7.23515 6.77539 7.21573C6.7371 7.19869 6.71722 7.1934 6.67535 7.1934C6.60572 7.1934 6.53602 7.2089 6.46606 7.24007Z" fill="white"/>
</g>
<path fill-rule="evenodd" clip-rule="evenodd" d="M2.07842 6.5332C2.16256 6.4312 2.20961 6.33841 2.20961 6.23983C2.20961 6.1777 2.19112 6.12404 2.15872 6.08016L2.16419 6.0777C2.16369 6.07795 2.25649 6.0375 2.2888 6.022C2.34887 5.9932 2.40178 5.9627 2.45337 5.92516C2.48631 5.9012 2.53045 5.87512 2.59772 5.839C2.60935 5.83275 2.64085 5.81604 2.66095 5.80537L2.67801 5.79633C2.71071 5.77887 2.73505 5.7655 2.75767 5.75237C2.82816 5.7115 2.87475 5.6777 2.91037 5.6325C2.99475 5.5255 2.97723 5.38045 2.85899 5.29995C2.80105 5.2605 2.72287 5.23787 2.60828 5.22008L2.58458 5.21641C2.54544 5.21033 2.47022 5.1987 2.44438 5.19466C2.38954 5.18604 2.34061 5.178 2.29698 5.17037C2.58389 5.12266 2.99357 5.1402 3.17378 5.23325L3.34505 4.9015C2.97782 4.71191 2.1411 4.73129 1.82855 4.9465C1.5993 5.10441 1.63006 5.34304 1.86858 5.44583C1.96825 5.48875 2.09818 5.51725 2.33862 5.55587C2.29832 5.57925 2.26492 5.60062 2.2338 5.62325C2.20223 5.6462 2.16841 5.6657 2.12739 5.68537C2.10777 5.69475 2.0497 5.72025 2.02306 5.73195L2.00966 5.73787C1.81537 5.8262 1.72108 5.94841 1.74926 6.16904L1.76451 6.28845L1.79187 6.29683L2.07842 6.5332ZM1.83827 6.22458L1.83767 6.22629L1.83812 6.22508L1.83827 6.22458ZM6.96092 6.23983C6.96092 6.33841 7.00797 6.4312 7.09209 6.5332L7.37867 6.29683L7.40601 6.28845L7.42126 6.16904C7.44947 5.94841 7.35517 5.8262 7.16088 5.73787L7.14751 5.73195C7.12088 5.72029 7.06276 5.69475 7.04313 5.68537C7.00213 5.6657 6.9683 5.6462 6.93676 5.62325C6.90563 5.60062 6.87222 5.57925 6.83192 5.55587C7.07234 5.51725 7.2023 5.48875 7.30197 5.44583C7.54047 5.34304 7.57122 5.10441 7.34197 4.9465C7.02942 4.73129 6.19272 4.71191 5.82547 4.9015L5.99676 5.23325C6.17697 5.1402 6.58663 5.12266 6.87355 5.17037C6.82992 5.178 6.78101 5.18604 6.72613 5.19466C6.70034 5.1987 6.62513 5.21033 6.58597 5.21637L6.56226 5.22008C6.44767 5.23787 6.36947 5.2605 6.31155 5.29995C6.1933 5.38045 6.1758 5.5255 6.26017 5.6325C6.2958 5.6777 6.34238 5.7115 6.41284 5.75237C6.43547 5.7655 6.45984 5.77887 6.49251 5.79633L6.50951 5.80533C6.52959 5.816 6.56117 5.83275 6.5728 5.839C6.64009 5.87512 6.68422 5.9012 6.71717 5.92516C6.76876 5.9627 6.82167 5.9932 6.88172 6.022C6.91405 6.0375 7.00684 6.07795 7.00634 6.0777L7.0118 6.08016C6.97942 6.12404 6.96092 6.1777 6.96092 6.23983Z" fill="#AD1619"/>
<path d="M2.46813 5.1665L2.60587 5.195V5.4003C2.45916 5.51738 2.08673 5.71467 2.08673 5.71467V5.1665H2.46813Z" fill="#F1F9FF"/>
<path d="M6.79766 5.1665L6.65991 5.195V5.4003C6.80662 5.51738 7.17908 5.71467 7.17908 5.71467V5.1665H6.79766Z" fill="#F1F9FF"/>
<path fill-rule="evenodd" clip-rule="evenodd" d="M6.15687 3.00241V2.93408C5.91687 2.76181 5.6655 2.67568 5.40279 2.67568C5.15095 2.56423 4.89604 2.52097 4.63804 2.5459L4.63816 2.5447C4.25025 2.50674 3.85932 2.67568 3.85932 2.67568C3.46527 2.67568 3.10522 2.93408 3.10522 2.93408V3.00241L3.5759 3.47513C3.5759 3.47513 3.70839 3.93013 4.63625 3.82319V3.82435C4.63625 3.82435 5.25054 3.80758 5.2937 3.79322C5.31083 3.78753 5.32862 3.78234 5.34675 3.77704C5.46708 3.74191 5.60445 3.70181 5.6862 3.47513L6.15687 3.00241ZM4.63625 2.5668C4.62283 2.72418 4.54637 3.6729 4.63625 3.81999V2.5668Z" fill="#AD1619"/>
<path fill-rule="evenodd" clip-rule="evenodd" d="M3.46427 3.3958L3.46458 3.39437L3.13345 3.08283L3.16543 3.04884L3.47615 3.34117L3.4841 3.3046C3.53493 3.31565 3.57209 3.31972 3.59375 3.31742V3.254L3.66262 3.29127C3.6965 3.30961 3.74502 3.31454 3.80892 3.30414C3.85585 3.2965 3.88752 3.24199 3.89788 3.12584L3.91878 2.89136L3.98891 3.11609C4.02064 3.21778 4.06905 3.26261 4.13797 3.26261C4.20529 3.26261 4.23234 3.23793 4.23534 3.17573L4.24379 2.99932L4.32359 3.15689C4.35229 3.21365 4.39196 3.23941 4.44829 3.23941C4.52892 3.23941 4.58275 3.17221 4.58275 3.06677H4.58425H4.67609H4.67759C4.67759 3.17221 4.73146 3.23941 4.81204 3.23941C4.86842 3.23941 4.90805 3.21365 4.9368 3.15689L5.01654 2.99932L5.02505 3.17573C5.028 3.23793 5.05509 3.26261 5.12238 3.26261C5.19129 3.26261 5.23971 3.21778 5.27142 3.11609L5.34154 2.89136L5.36246 3.12584C5.37284 3.24199 5.4045 3.2965 5.45142 3.30414C5.51534 3.31454 5.56384 3.30961 5.59771 3.29127L5.66659 3.254V3.31742C5.68825 3.31972 5.72542 3.31565 5.77625 3.3046L5.791 3.37246L6.13496 3.04884L6.16696 3.08283L5.73892 3.48554C5.67646 3.60055 5.645 3.67647 5.645 3.708C5.645 3.75611 5.51984 3.78466 5.27559 3.81399C5.08421 3.83697 4.85838 3.85239 4.67363 3.85469L4.65021 3.85492L4.62679 3.85499C4.44204 3.85269 4.21621 3.83697 4.02483 3.81399C3.78055 3.78466 3.65539 3.75611 3.65539 3.708C3.65539 3.70203 3.65427 3.69448 3.65202 3.68537C3.62739 3.65401 3.61007 3.60269 3.59854 3.5564C3.58773 3.53475 3.57538 3.51111 3.5615 3.48554L3.46666 3.39632L3.46427 3.3958ZM5.75821 3.40332C5.68179 3.41684 5.62659 3.41548 5.59729 3.39164C5.5515 3.40497 5.4978 3.40624 5.43642 3.39626C5.37092 3.3856 5.3253 3.34202 5.29784 3.26973C5.262 3.31539 5.21667 3.34358 5.16242 3.35269C5.46105 3.39504 5.67021 3.45458 5.67021 3.45458C5.67021 3.45458 5.66509 3.4988 5.65255 3.5508C5.6658 3.52358 5.68155 3.49333 5.69971 3.45995L5.70421 3.45412L5.75821 3.40332ZM5.0215 3.33495C4.9955 3.32205 4.97475 3.30334 4.95979 3.27922C4.9375 3.29888 4.91221 3.31327 4.88409 3.32214C4.931 3.32573 4.97692 3.33007 5.0215 3.33495ZM4.71934 3.31306C4.68296 3.29626 4.65275 3.26936 4.63017 3.23489C4.60775 3.26912 4.5778 3.29588 4.5418 3.3127C4.56313 3.31207 4.58459 3.31162 4.60613 3.31137L4.62484 3.31122L4.64355 3.31116C4.66896 3.31145 4.69425 3.31223 4.71934 3.31306ZM3.5928 3.45092L3.54929 3.40999C3.60152 3.41517 3.64018 3.41025 3.66304 3.39164C3.70884 3.40497 3.76257 3.40624 3.82391 3.39626C3.88942 3.3856 3.93505 3.34202 3.9625 3.26973C3.9973 3.31407 4.04104 3.34193 4.09325 3.35185C3.83577 3.38803 3.64367 3.43724 3.5928 3.45092ZM4.37425 3.32149C4.32904 3.32484 4.28479 3.32891 4.24175 3.33349C4.26638 3.32065 4.28613 3.30244 4.30059 3.27922C4.3223 3.29841 4.34692 3.31257 4.37425 3.32149ZM5.52234 3.70891C5.555 3.72422 5.58121 3.70895 5.60196 3.67965C5.60017 3.68775 5.59905 3.69506 5.59859 3.70161C5.59584 3.7034 5.59163 3.70556 5.58613 3.70788C5.57075 3.71434 5.5473 3.72122 5.51675 3.72819C5.45671 3.74189 5.37129 3.7555 5.27 3.76766C5.07225 3.7914 4.83713 3.80702 4.65021 3.80825C4.46325 3.80702 4.22813 3.7914 4.03039 3.76766C3.92913 3.7555 3.84369 3.74189 3.78366 3.72819C3.75806 3.72235 3.73742 3.71657 3.72237 3.71104C3.72402 3.71042 3.72569 3.70971 3.72739 3.70891C3.82933 3.66121 4.50346 3.61644 4.62484 3.60872C4.74625 3.61644 5.42038 3.66121 5.52234 3.70891Z" fill="#C88A02"/>
<path fill-rule="evenodd" clip-rule="evenodd" d="M4.63023 2.228C4.70753 2.228 4.77023 2.16532 4.77023 2.088C4.77023 2.01068 4.70753 1.948 4.63023 1.948C4.5529 1.948 4.49023 2.01068 4.49023 2.088C4.49023 2.16532 4.5529 2.228 4.63023 2.228Z" fill="#005BBF"/>
<path fill-rule="evenodd" clip-rule="evenodd" d="M4.53936 2.91529C4.54232 2.93065 4.54698 2.94496 4.5529 2.9577C4.53482 2.9508 4.51336 2.9468 4.49032 2.9468C4.4259 2.9468 4.37365 2.97814 4.37365 3.0168C4.37365 3.05546 4.4259 3.0868 4.49032 3.0868C4.55473 3.0868 4.60698 3.05546 4.60698 3.0168C4.60698 3.05546 4.65923 3.0868 4.72365 3.0868C4.78807 3.0868 4.84032 3.05546 4.84032 3.0168C4.84032 2.97814 4.78807 2.9468 4.72365 2.9468C4.70744 2.9468 4.69198 2.94878 4.67794 2.95237C4.68132 2.93323 4.68119 2.91129 4.67677 2.88858C4.66448 2.82533 4.62373 2.78003 4.58577 2.78741C4.54786 2.79478 4.52702 2.85204 4.53936 2.91529ZM3.85289 3.00437C3.84699 2.99163 3.84232 2.97732 3.83934 2.96195C3.82704 2.8987 3.84784 2.84145 3.88579 2.83408C3.92374 2.8267 3.96447 2.87199 3.97677 2.93524C3.98118 2.95796 3.98133 2.9799 3.97794 2.99904C3.99198 2.99545 4.00743 2.99346 4.02364 2.99346C4.08808 2.99346 4.14031 3.0248 4.14031 3.06346C4.14031 3.10213 4.08808 3.13346 4.02364 3.13346C3.95921 3.13346 3.90698 3.10213 3.90698 3.06346C3.90698 3.10213 3.85475 3.13346 3.79031 3.13346C3.72588 3.13346 3.67364 3.10213 3.67364 3.06346C3.67364 3.0248 3.72588 2.99346 3.79031 2.99346C3.81334 2.99346 3.8348 2.99747 3.85289 3.00437ZM5.31444 3.04703C5.30907 3.08531 5.25298 3.10908 5.18919 3.10011C5.12536 3.09115 5.07802 3.05284 5.0834 3.01456C5.08877 2.97628 5.14486 2.95251 5.20865 2.96148C5.23148 2.96468 5.25215 2.97163 5.26911 2.98099C5.26502 2.96754 5.2624 2.95273 5.26161 2.9371C5.25823 2.87275 5.28677 2.81895 5.3254 2.81693C5.36398 2.8149 5.39802 2.86542 5.4014 2.92977C5.40261 2.95288 5.39969 2.97463 5.39369 2.99311C5.40811 2.99151 5.42365 2.99169 5.43973 2.99395C5.50352 3.00292 5.5509 3.04122 5.54552 3.0795C5.54015 3.11779 5.48407 3.14155 5.42023 3.13259C5.35644 3.12362 5.30907 3.08531 5.31444 3.04703ZM5.75877 3.23214C5.81569 3.26239 5.87652 3.25924 5.89465 3.2251L5.89561 3.22319C5.90123 3.22912 5.90786 3.23344 5.91544 3.23575C5.9524 3.24706 5.99765 3.20627 6.01648 3.14465C6.03532 3.08303 6.02061 3.02392 5.98365 3.01262C5.94669 3.00131 5.90144 3.0421 5.88261 3.10372C5.87802 3.11869 5.87544 3.13351 5.87465 3.14753C5.86194 3.13295 5.84486 3.11933 5.82452 3.10853C5.76761 3.07828 5.70677 3.08143 5.68865 3.11556C5.67048 3.14969 5.7019 3.20189 5.75877 3.23214ZM3.46899 3.24643C3.41209 3.27668 3.35126 3.27353 3.33312 3.2394C3.33278 3.23877 3.33246 3.23813 3.33216 3.23749C3.32655 3.24342 3.31992 3.24773 3.31235 3.25005C3.27538 3.26135 3.23014 3.22056 3.2113 3.15895C3.19246 3.09733 3.20716 3.03821 3.24413 3.02691C3.2811 3.01561 3.32634 3.0564 3.34518 3.11801C3.34976 3.13298 3.35236 3.1478 3.35314 3.16183C3.36586 3.14724 3.38293 3.13363 3.40326 3.12282C3.46015 3.09257 3.52099 3.09572 3.53914 3.12985C3.55729 3.16399 3.52588 3.21618 3.46899 3.24643Z" fill="#C88A02"/>
<path fill-rule="evenodd" clip-rule="evenodd" d="M4.57803 1.69873H4.67524V1.76015H4.73878V1.85737H4.67524V2.05181H4.73878V2.14903H4.51349V2.05181H4.57803V1.85737H4.51349V1.76015H4.57803V1.69873Z" fill="#C88A02"/>
<path d="M4.56015 2.22656H4.74682V2.83323H4.56015V2.22656Z" fill="#C88A02"/>
<path d="M3.80862 2.32823L3.80781 2.37489C3.39402 2.36767 3.15666 2.42805 3.09641 2.54841C3.03412 2.67284 3.0457 2.82409 3.13298 3.00377L3.09101 3.02416C2.99788 2.83246 2.98516 2.66638 3.05468 2.52752C3.12624 2.38459 3.37733 2.3207 3.80862 2.32823Z" fill="white"/>
<path d="M3.88875 2.74198L3.86483 2.78205C3.77471 2.72824 3.72961 2.63642 3.72961 2.50988C3.72961 2.32801 3.8233 2.22136 4.03053 2.14838C4.16279 2.1018 4.34348 2.1209 4.57306 2.20414L4.55714 2.24801C4.33673 2.1681 4.1662 2.15008 4.04603 2.1924C3.85595 2.25934 3.77628 2.35003 3.77628 2.50988C3.77628 2.62092 3.81374 2.69719 3.88875 2.74198Z" fill="white"/>
<path d="M3.19176 2.93214L3.1037 2.96307C3.01234 2.70292 3.03843 2.52625 3.19455 2.45004C3.33212 2.38289 3.53261 2.35556 3.79703 2.36627L3.79325 2.45953C3.5429 2.44939 3.35665 2.47477 3.23549 2.53391C3.13289 2.584 3.11412 2.71108 3.19176 2.93214Z" fill="#C88A02"/>
<path d="M4.22055 2.26594C4.00716 2.26594 3.91954 2.31791 3.86947 2.47137C3.83757 2.56916 3.86851 2.65262 3.96884 2.73053L3.91159 2.80425C3.7817 2.70338 3.73591 2.57985 3.78074 2.44242C3.84454 2.24686 3.96974 2.17261 4.22055 2.17261C4.38497 2.17261 4.51301 2.2158 4.60218 2.3037L4.61609 2.31741V2.76739H4.52276V2.3573C4.45314 2.29681 4.35309 2.26594 4.22055 2.26594Z" fill="#C88A02"/>
<path d="M5.43719 2.37486L5.43803 2.42152C5.85182 2.4143 6.08919 2.47468 6.14944 2.59504C6.21174 2.71947 6.20015 2.87072 6.11286 3.0504L6.15482 3.0708C6.24795 2.87909 6.26065 2.71301 6.19115 2.57415C6.11961 2.43121 5.86853 2.36733 5.43719 2.37486Z" fill="white"/>
<path d="M5.29104 2.75174L5.31496 2.79182C5.40508 2.73801 5.45017 2.64619 5.45017 2.51965C5.45017 2.33778 5.3565 2.23113 5.14925 2.15814C5.017 2.11157 4.83633 2.13067 4.60675 2.21391L4.62267 2.25778C4.84304 2.17787 5.01358 2.15984 5.13375 2.20216C5.32383 2.2691 5.4035 2.3598 5.4035 2.51965C5.4035 2.63069 5.36604 2.70696 5.29104 2.75174Z" fill="white"/>
<path d="M6.08297 2.97901L6.17106 3.00994C6.26243 2.7498 6.23631 2.57313 6.08018 2.49691C5.94264 2.42976 5.74214 2.40243 5.47772 2.41315L5.48151 2.50641C5.73185 2.49626 5.9181 2.52165 6.03926 2.58079C6.14185 2.63087 6.16064 2.75795 6.08297 2.97901Z" fill="#C88A02"/>
<path d="M5.04886 2.27327C5.26228 2.27327 5.3499 2.32524 5.39995 2.47869C5.43186 2.57649 5.4009 2.65995 5.30057 2.73786L5.35782 2.81158C5.48774 2.71071 5.53353 2.58717 5.4887 2.44974C5.42486 2.25418 5.2997 2.17993 5.04886 2.17993C4.88449 2.17993 4.7564 2.22312 4.66724 2.31102L4.65332 2.32473V2.77472H4.74665V2.36462C4.81632 2.30414 4.91632 2.27327 5.04886 2.27327Z" fill="#C88A02"/>
<path opacity="0.3" fill-rule="evenodd" clip-rule="evenodd" d="M3.11343 3.86011H6.14675V6.58543C6.14675 6.58543 5.92145 7.5001 4.63008 7.5001C3.33875 7.5001 3.11343 6.56135 3.11343 6.56135V3.86011Z" fill="#E1E5E8"/>
<mask id="mask4_0_531" style="mask-type:luminance" maskUnits="userSpaceOnUse" x="3" y="3" width="4" height="5">
<path fill-rule="evenodd" clip-rule="evenodd" d="M3.11343 3.86011H6.14675V6.58543C6.14675 6.58543 5.92145 7.5001 4.63008 7.5001C3.33875 7.5001 3.11343 6.56135 3.11343 6.56135V3.86011Z" fill="white"/>
</mask>
<g mask="url(#mask4_0_531)">
<path d="M3.11374 5.54004H4.65374V7.36004H3.11374V5.54004Z" fill="#FFC034"/>
<path d="M3.30029 5.6333H3.48696V7.35997H3.30029V5.6333Z" fill="#AD1619"/>
<path d="M3.95377 5.6333H4.14043V7.35997H3.95377V5.6333Z" fill="#AD1619"/>
<path d="M3.62704 5.6333H3.81371V7.35997H3.62704V5.6333Z" fill="#AD1619"/>
<path d="M4.28052 5.6333H4.46718V7.35997H4.28052V5.6333Z" fill="#AD1619"/>
<path d="M3.11359 3.81323H4.65359V5.58657H3.11359V3.81323Z" fill="#AD1619"/>
<path d="M4.60706 5.49341H6.14706V7.26674H4.60706V5.49341Z" fill="#AD1619"/>
<path d="M4.60706 3.86011H6.24039V5.58677H4.60706V3.86011Z" fill="#F1F9FF"/>
<path fill-rule="evenodd" clip-rule="evenodd" d="M3.76716 4H3.90716V4.38717H4.00049V4.19359H4.14049V4.38717H4.28049V4.62913H4.14049V5.06467H4.28049V5.30667H3.44049V5.06467H3.58049V4.62913H3.44049V4.38717H3.53382V4.19359H3.67382V4.38717H3.76716V4Z" fill="#C88A02"/>
<path d="M5.4082 4.08131L5.50375 3.979L5.70441 4.16643L5.60883 4.26874L5.4082 4.08131Z" fill="#C88A02"/>
<path fill-rule="evenodd" clip-rule="evenodd" d="M5.98362 6.72504V5.70337H4.81696V6.71649L4.81879 6.72437C4.87783 6.97604 5.07896 7.10337 5.40029 7.10337C5.72125 7.10337 5.92237 6.97933 5.98166 6.73312L5.98362 6.72504ZM5.40029 6.96337C5.1425 6.96337 5.00171 6.87654 4.95696 6.69999V5.84337H5.84362V6.70812C5.79896 6.87887 5.65816 6.96337 5.40029 6.96337Z" fill="#FFC034"/>
<path fill-rule="evenodd" clip-rule="evenodd" d="M5.44855 5.78857H5.35134V6.25178L4.96809 5.83495L4.89938 5.89812L5.24597 6.27507H4.93193V6.41507H5.17318H5.25359L4.89938 6.80037L4.96809 6.86353L5.35134 6.4467V6.98812H5.44855V6.49541L5.78701 6.86353L5.85572 6.80037L5.50147 6.41507H5.89688V6.27507H5.50913L5.85572 5.89812L5.78701 5.83495L5.44855 6.20307V5.78857Z" fill="#FFC034"/>
<path fill-rule="evenodd" clip-rule="evenodd" d="M5.6181 7.2678C5.6181 7.2678 4.62968 7.34551 4.62968 6.70801C4.62968 6.70801 4.62027 7.2678 3.58817 7.2678V7.77105H5.6181V7.2678Z" fill="#F1F9FF"/>
<path fill-rule="evenodd" clip-rule="evenodd" d="M4.63052 5.91317C4.82381 5.91317 4.98052 5.746 4.98052 5.53984C4.98052 5.33367 4.82381 5.1665 4.63052 5.1665C4.43723 5.1665 4.28052 5.33367 4.28052 5.53984C4.28052 5.746 4.43723 5.91317 4.63052 5.91317Z" fill="#005BBF" stroke="#AD1619" stroke-width="2.27743"/>
</g>
</g>
</g>
</svg>
