<svg width="14" height="10" viewBox="0 0 14 10" fill="none" xmlns="http://www.w3.org/2000/svg">
<mask id="mask0_0_276" style="mask-type:luminance" maskUnits="userSpaceOnUse" x="0" y="0" width="14" height="10">
<path d="M0.5 0H13.8333V10H0.5V0Z" fill="white"/>
</mask>
<g mask="url(#mask0_0_276)">
<path fill-rule="evenodd" clip-rule="evenodd" d="M3.83335 0H10.5V10H3.83335V0Z" fill="#F7FCFF"/>
<path fill-rule="evenodd" clip-rule="evenodd" d="M7.15686 2.91667L7.1667 7.91667H6.91691L7.07016 6.67929C5.94928 6.881 5.43516 6.93096 5.52782 6.82925C5.62049 6.7275 5.69353 6.58333 5.74691 6.39671L4.25003 5.39804C4.40744 5.39608 4.55018 5.357 4.67824 5.28083C4.80628 5.20467 4.74228 4.94075 4.48615 4.48904L5.24191 4.599L5.52782 4.28825L6.09803 4.88504H6.35432L6.09803 3.5181L6.55745 3.77472L7.15686 2.91667ZM7.15686 2.91667L7.77595 3.77472L8.23536 3.5181L7.97907 4.88504H8.23536L8.80557 4.28825L9.09149 4.599L9.84724 4.48904C9.59111 4.94075 9.52711 5.20467 9.65516 5.28083C9.7832 5.357 9.92595 5.39608 10.0834 5.39804L8.58649 6.39671C8.63986 6.58333 8.71291 6.7275 8.80557 6.82925C8.89824 6.93096 8.38411 6.881 7.26324 6.67929L7.41649 7.91667H7.1667L7.15686 2.91667Z" fill="#E31D1C"/>
<path fill-rule="evenodd" clip-rule="evenodd" d="M10.5 0H13.8334V10H10.5V0Z" fill="#E31D1C"/>
<path fill-rule="evenodd" clip-rule="evenodd" d="M0.5 0H3.83333V10H0.5V0Z" fill="#E31D1C"/>
</g>
</svg>
